# Tiled2Unity generated file. Do not modify by hand.
# Wavefront file for 'test_area_mesh_0002.obj'

# Vertices (Count = 416)
v -44 -31 0
v -45 -31 0
v -45 -30 0
v -44 -30 0
v -43 -31 0
v -44 -31 0
v -44 -30 0
v -43 -30 0
v -42 -31 0
v -43 -31 0
v -43 -30 0
v -42 -30 0
v -41 -31 0
v -42 -31 0
v -42 -30 0
v -41 -30 0
v -40 -31 0
v -41 -31 0
v -41 -30 0
v -40 -30 0
v -39 -31 0
v -40 -31 0
v -40 -30 0
v -39 -30 0
v -38 -31 0
v -39 -31 0
v -39 -30 0
v -38 -30 0
v -37 -31 0
v -38 -31 0
v -38 -30 0
v -37 -30 0
v -36 -31 0
v -37 -31 0
v -37 -30 0
v -36 -30 0
v -35 -31 0
v -36 -31 0
v -36 -30 0
v -35 -30 0
v -34 -31 0
v -35 -31 0
v -35 -30 0
v -34 -30 0
v -33 -31 0
v -34 -31 0
v -34 -30 0
v -33 -30 0
v -46 -32 0
v -47 -32 0
v -47 -31 0
v -46 -31 0
v -45 -32 0
v -46 -32 0
v -46 -31 0
v -45 -31 0
v -44 -32 0
v -45 -32 0
v -45 -31 0
v -44 -31 0
v -43 -32 0
v -44 -32 0
v -44 -31 0
v -43 -31 0
v -42 -32 0
v -43 -32 0
v -43 -31 0
v -42 -31 0
v -41 -32 0
v -42 -32 0
v -42 -31 0
v -41 -31 0
v -40 -32 0
v -41 -32 0
v -41 -31 0
v -40 -31 0
v -39 -32 0
v -40 -32 0
v -40 -31 0
v -39 -31 0
v -38 -32 0
v -39 -32 0
v -39 -31 0
v -38 -31 0
v -37 -32 0
v -38 -32 0
v -38 -31 0
v -37 -31 0
v -36 -32 0
v -37 -32 0
v -37 -31 0
v -36 -31 0
v -35 -32 0
v -36 -32 0
v -36 -31 0
v -35 -31 0
v -34 -32 0
v -35 -32 0
v -35 -31 0
v -34 -31 0
v -33 -32 0
v -34 -32 0
v -34 -31 0
v -33 -31 0
v -47 -33 0
v -48 -33 0
v -48 -32 0
v -47 -32 0
v -46 -33 0
v -47 -33 0
v -47 -32 0
v -46 -32 0
v -45 -33 0
v -46 -33 0
v -46 -32 0
v -45 -32 0
v -44 -33 0
v -45 -33 0
v -45 -32 0
v -44 -32 0
v -43 -33 0
v -44 -33 0
v -44 -32 0
v -43 -32 0
v -42 -33 0
v -43 -33 0
v -43 -32 0
v -42 -32 0
v -41 -33 0
v -42 -33 0
v -42 -32 0
v -41 -32 0
v -40 -33 0
v -41 -33 0
v -41 -32 0
v -40 -32 0
v -39 -33 0
v -40 -33 0
v -40 -32 0
v -39 -32 0
v -38 -33 0
v -39 -33 0
v -39 -32 0
v -38 -32 0
v -37 -33 0
v -38 -33 0
v -38 -32 0
v -37 -32 0
v -36 -33 0
v -37 -33 0
v -37 -32 0
v -36 -32 0
v -35 -33 0
v -36 -33 0
v -36 -32 0
v -35 -32 0
v -34 -33 0
v -35 -33 0
v -35 -32 0
v -34 -32 0
v -33 -33 0
v -34 -33 0
v -34 -32 0
v -33 -32 0
v -32 -33 0
v -33 -33 0
v -33 -32 0
v -32 -32 0
v -47 -34 0
v -48 -34 0
v -48 -33 0
v -47 -33 0
v -46 -34 0
v -47 -34 0
v -47 -33 0
v -46 -33 0
v -45 -34 0
v -46 -34 0
v -46 -33 0
v -45 -33 0
v -44 -34 0
v -45 -34 0
v -45 -33 0
v -44 -33 0
v -43 -34 0
v -44 -34 0
v -44 -33 0
v -43 -33 0
v -42 -34 0
v -43 -34 0
v -43 -33 0
v -42 -33 0
v -41 -34 0
v -42 -34 0
v -42 -33 0
v -41 -33 0
v -40 -34 0
v -41 -34 0
v -41 -33 0
v -40 -33 0
v -39 -34 0
v -40 -34 0
v -40 -33 0
v -39 -33 0
v -38 -34 0
v -39 -34 0
v -39 -33 0
v -38 -33 0
v -37 -34 0
v -38 -34 0
v -38 -33 0
v -37 -33 0
v -36 -34 0
v -37 -34 0
v -37 -33 0
v -36 -33 0
v -35 -34 0
v -36 -34 0
v -36 -33 0
v -35 -33 0
v -34 -34 0
v -35 -34 0
v -35 -33 0
v -34 -33 0
v -33 -34 0
v -34 -34 0
v -34 -33 0
v -33 -33 0
v -32 -34 0
v -33 -34 0
v -33 -33 0
v -32 -33 0
v -47 -35 0
v -48 -35 0
v -48 -34 0
v -47 -34 0
v -46 -35 0
v -47 -35 0
v -47 -34 0
v -46 -34 0
v -45 -35 0
v -46 -35 0
v -46 -34 0
v -45 -34 0
v -44 -35 0
v -45 -35 0
v -45 -34 0
v -44 -34 0
v -43 -35 0
v -44 -35 0
v -44 -34 0
v -43 -34 0
v -42 -35 0
v -43 -35 0
v -43 -34 0
v -42 -34 0
v -41 -35 0
v -42 -35 0
v -42 -34 0
v -41 -34 0
v -40 -35 0
v -41 -35 0
v -41 -34 0
v -40 -34 0
v -39 -35 0
v -40 -35 0
v -40 -34 0
v -39 -34 0
v -38 -35 0
v -39 -35 0
v -39 -34 0
v -38 -34 0
v -37 -35 0
v -38 -35 0
v -38 -34 0
v -37 -34 0
v -36 -35 0
v -37 -35 0
v -37 -34 0
v -36 -34 0
v -35 -35 0
v -36 -35 0
v -36 -34 0
v -35 -34 0
v -34 -35 0
v -35 -35 0
v -35 -34 0
v -34 -34 0
v -33 -35 0
v -34 -35 0
v -34 -34 0
v -33 -34 0
v -32 -35 0
v -33 -35 0
v -33 -34 0
v -32 -34 0
v -47 -36 0
v -48 -36 0
v -48 -35 0
v -47 -35 0
v -46 -36 0
v -47 -36 0
v -47 -35 0
v -46 -35 0
v -45 -36 0
v -46 -36 0
v -46 -35 0
v -45 -35 0
v -44 -36 0
v -45 -36 0
v -45 -35 0
v -44 -35 0
v -43 -36 0
v -44 -36 0
v -44 -35 0
v -43 -35 0
v -42 -36 0
v -43 -36 0
v -43 -35 0
v -42 -35 0
v -41 -36 0
v -42 -36 0
v -42 -35 0
v -41 -35 0
v -40 -36 0
v -41 -36 0
v -41 -35 0
v -40 -35 0
v -39 -36 0
v -40 -36 0
v -40 -35 0
v -39 -35 0
v -38 -36 0
v -39 -36 0
v -39 -35 0
v -38 -35 0
v -37 -36 0
v -38 -36 0
v -38 -35 0
v -37 -35 0
v -36 -36 0
v -37 -36 0
v -37 -35 0
v -36 -35 0
v -35 -36 0
v -36 -36 0
v -36 -35 0
v -35 -35 0
v -34 -36 0
v -35 -36 0
v -35 -35 0
v -34 -35 0
v -33 -36 0
v -34 -36 0
v -34 -35 0
v -33 -35 0
v -32 -36 0
v -33 -36 0
v -33 -35 0
v -32 -35 0
v -45 -37 0
v -46 -37 0
v -46 -36 0
v -45 -36 0
v -44 -37 0
v -45 -37 0
v -45 -36 0
v -44 -36 0
v -43 -37 0
v -44 -37 0
v -44 -36 0
v -43 -36 0
v -42 -37 0
v -43 -37 0
v -43 -36 0
v -42 -36 0
v -41 -37 0
v -42 -37 0
v -42 -36 0
v -41 -36 0
v -40 -37 0
v -41 -37 0
v -41 -36 0
v -40 -36 0
v -39 -37 0
v -40 -37 0
v -40 -36 0
v -39 -36 0
v -38 -37 0
v -39 -37 0
v -39 -36 0
v -38 -36 0
v -37 -37 0
v -38 -37 0
v -38 -36 0
v -37 -36 0
v -36 -37 0
v -37 -37 0
v -37 -36 0
v -36 -36 0
v -35 -37 0
v -36 -37 0
v -36 -36 0
v -35 -36 0
v -34 -37 0
v -35 -37 0
v -35 -36 0
v -34 -36 0
v -33 -37 0
v -34 -37 0
v -34 -36 0
v -33 -36 0
v -32 -37 0
v -33 -37 0
v -33 -36 0
v -32 -36 0

# Texture cooridinates (Count = 48)
vt 0.1580579 0.6787072
vt 0.1745868 0.6787072
vt 0.1745868 0.7091255
vt 0.1580579 0.7091255
vt 0.1404959 0.6787072
vt 0.1570248 0.6787072
vt 0.1570248 0.7091255
vt 0.1404959 0.7091255
vt 0.1229339 0.6787072
vt 0.1394628 0.6787072
vt 0.1394628 0.7091255
vt 0.1229339 0.7091255
vt 0.08780992 0.6463878
vt 0.1043388 0.6463878
vt 0.1043388 0.6768061
vt 0.08780992 0.6768061
vt 0.1404959 0.6463878
vt 0.1570248 0.6463878
vt 0.1570248 0.6768061
vt 0.1404959 0.6768061
vt 0.1053719 0.6463878
vt 0.1219008 0.6463878
vt 0.1219008 0.6768061
vt 0.1053719 0.6768061
vt 0.1229339 0.6463878
vt 0.1394628 0.6463878
vt 0.1394628 0.6768061
vt 0.1229339 0.6768061
vt 0.1580579 0.6463878
vt 0.1745868 0.6463878
vt 0.1745868 0.6768061
vt 0.1580579 0.6768061
vt 0.1580579 0.6140684
vt 0.1745868 0.6140684
vt 0.1745868 0.6444867
vt 0.1580579 0.6444867
vt 0.1404959 0.6140684
vt 0.1570248 0.6140684
vt 0.1570248 0.6444867
vt 0.1404959 0.6444867
vt 0.08780992 0.6787072
vt 0.1043388 0.6787072
vt 0.1043388 0.7091255
vt 0.08780992 0.7091255
vt 0.1229339 0.6140684
vt 0.1394628 0.6140684
vt 0.1394628 0.6444867
vt 0.1229339 0.6444867

# Normal
vn 0 0 -1

# Mesh description
g test_area_mesh_0002

# Faces
f 1/1/1 2/2/1 3/3/1 4/4/1
f 5/5/1 6/6/1 7/7/1 8/8/1
f 9/5/1 10/6/1 11/7/1 12/8/1
f 13/5/1 14/6/1 15/7/1 16/8/1
f 17/5/1 18/6/1 19/7/1 20/8/1
f 21/5/1 22/6/1 23/7/1 24/8/1
f 25/5/1 26/6/1 27/7/1 28/8/1
f 29/5/1 30/6/1 31/7/1 32/8/1
f 33/5/1 34/6/1 35/7/1 36/8/1
f 37/5/1 38/6/1 39/7/1 40/8/1
f 41/5/1 42/6/1 43/7/1 44/8/1
f 45/9/1 46/10/1 47/11/1 48/12/1
f 49/1/1 50/2/1 51/3/1 52/4/1
f 53/5/1 54/6/1 55/7/1 56/8/1
f 57/13/1 58/14/1 59/15/1 60/16/1
f 61/17/1 62/18/1 63/19/1 64/20/1
f 65/17/1 66/18/1 67/19/1 68/20/1
f 69/17/1 70/18/1 71/19/1 72/20/1
f 73/17/1 74/18/1 75/19/1 76/20/1
f 77/17/1 78/18/1 79/19/1 80/20/1
f 81/17/1 82/18/1 83/19/1 84/20/1
f 85/17/1 86/18/1 87/19/1 88/20/1
f 89/17/1 90/18/1 91/19/1 92/20/1
f 93/17/1 94/18/1 95/19/1 96/20/1
f 97/17/1 98/18/1 99/19/1 100/20/1
f 101/21/1 102/22/1 103/23/1 104/24/1
f 105/1/1 106/2/1 107/3/1 108/4/1
f 109/13/1 110/14/1 111/15/1 112/16/1
f 113/17/1 114/18/1 115/19/1 116/20/1
f 117/17/1 118/18/1 119/19/1 120/20/1
f 121/17/1 122/18/1 123/19/1 124/20/1
f 125/17/1 126/18/1 127/19/1 128/20/1
f 129/17/1 130/18/1 131/19/1 132/20/1
f 133/17/1 134/18/1 135/19/1 136/20/1
f 137/17/1 138/18/1 139/19/1 140/20/1
f 141/17/1 142/18/1 143/19/1 144/20/1
f 145/17/1 146/18/1 147/19/1 148/20/1
f 149/17/1 150/18/1 151/19/1 152/20/1
f 153/17/1 154/18/1 155/19/1 156/20/1
f 157/17/1 158/18/1 159/19/1 160/20/1
f 161/17/1 162/18/1 163/19/1 164/20/1
f 165/25/1 166/26/1 167/27/1 168/28/1
f 169/29/1 170/30/1 171/31/1 172/32/1
f 173/17/1 174/18/1 175/19/1 176/20/1
f 177/17/1 178/18/1 179/19/1 180/20/1
f 181/17/1 182/18/1 183/19/1 184/20/1
f 185/17/1 186/18/1 187/19/1 188/20/1
f 189/17/1 190/18/1 191/19/1 192/20/1
f 193/17/1 194/18/1 195/19/1 196/20/1
f 197/17/1 198/18/1 199/19/1 200/20/1
f 201/17/1 202/18/1 203/19/1 204/20/1
f 205/17/1 206/18/1 207/19/1 208/20/1
f 209/17/1 210/18/1 211/19/1 212/20/1
f 213/17/1 214/18/1 215/19/1 216/20/1
f 217/17/1 218/18/1 219/19/1 220/20/1
f 221/17/1 222/18/1 223/19/1 224/20/1
f 225/17/1 226/18/1 227/19/1 228/20/1
f 229/25/1 230/26/1 231/27/1 232/28/1
f 233/29/1 234/30/1 235/31/1 236/32/1
f 237/17/1 238/18/1 239/19/1 240/20/1
f 241/17/1 242/18/1 243/19/1 244/20/1
f 245/17/1 246/18/1 247/19/1 248/20/1
f 249/17/1 250/18/1 251/19/1 252/20/1
f 253/17/1 254/18/1 255/19/1 256/20/1
f 257/17/1 258/18/1 259/19/1 260/20/1
f 261/17/1 262/18/1 263/19/1 264/20/1
f 265/17/1 266/18/1 267/19/1 268/20/1
f 269/17/1 270/18/1 271/19/1 272/20/1
f 273/17/1 274/18/1 275/19/1 276/20/1
f 277/17/1 278/18/1 279/19/1 280/20/1
f 281/17/1 282/18/1 283/19/1 284/20/1
f 285/17/1 286/18/1 287/19/1 288/20/1
f 289/17/1 290/18/1 291/19/1 292/20/1
f 293/25/1 294/26/1 295/27/1 296/28/1
f 297/33/1 298/34/1 299/35/1 300/36/1
f 301/37/1 302/38/1 303/39/1 304/40/1
f 305/41/1 306/42/1 307/43/1 308/44/1
f 309/17/1 310/18/1 311/19/1 312/20/1
f 313/17/1 314/18/1 315/19/1 316/20/1
f 317/17/1 318/18/1 319/19/1 320/20/1
f 321/17/1 322/18/1 323/19/1 324/20/1
f 325/17/1 326/18/1 327/19/1 328/20/1
f 329/17/1 330/18/1 331/19/1 332/20/1
f 333/17/1 334/18/1 335/19/1 336/20/1
f 337/17/1 338/18/1 339/19/1 340/20/1
f 341/17/1 342/18/1 343/19/1 344/20/1
f 345/17/1 346/18/1 347/19/1 348/20/1
f 349/17/1 350/18/1 351/19/1 352/20/1
f 353/17/1 354/18/1 355/19/1 356/20/1
f 357/25/1 358/26/1 359/27/1 360/28/1
f 361/33/1 362/34/1 363/35/1 364/36/1
f 365/37/1 366/38/1 367/39/1 368/40/1
f 369/37/1 370/38/1 371/39/1 372/40/1
f 373/37/1 374/38/1 375/39/1 376/40/1
f 377/37/1 378/38/1 379/39/1 380/40/1
f 381/37/1 382/38/1 383/39/1 384/40/1
f 385/37/1 386/38/1 387/39/1 388/40/1
f 389/37/1 390/38/1 391/39/1 392/40/1
f 393/37/1 394/38/1 395/39/1 396/40/1
f 397/37/1 398/38/1 399/39/1 400/40/1
f 401/37/1 402/38/1 403/39/1 404/40/1
f 405/37/1 406/38/1 407/39/1 408/40/1
f 409/37/1 410/38/1 411/39/1 412/40/1
f 413/45/1 414/46/1 415/47/1 416/48/1

